Coordinates
version=1
nRows=17
nColumns=40
inDegrees=yes

Units are S.I. units (second, meters, Newtons, ...)
Angles are in degrees.

endheader
time	pelvis_tilt	pelvis_list	pelvis_rotation	pelvis_tx	pelvis_ty	pelvis_tz	hip_flexion_r	hip_adduction_r	hip_rotation_r	knee_angle_r	knee_angle_r_beta	ankle_angle_r	subtalar_angle_r	mtp_angle_r	hip_flexion_l	hip_adduction_l	hip_rotation_l	knee_angle_l	knee_angle_l_beta	ankle_angle_l	subtalar_angle_l	mtp_angle_l	lumbar_extension	lumbar_bending	lumbar_rotation	arm_flex_r	arm_add_r	arm_rot_r	elbow_flex_r	pro_sup_r	wrist_flex_r	wrist_dev_r	arm_flex_l	arm_add_l	arm_rot_l	elbow_flex_l	pro_sup_l	wrist_flex_l	wrist_dev_l
      2.80000000	     -2.94320204	     -4.60697489	      0.69272696	      1.00929268	      0.93173756	      0.42531957	     25.34610864	     -7.01516750	     -4.03746139	     64.50369577	     64.50369577	      0.06874482	     -8.71231718	     -3.21041100	     15.54915732	     -6.64239231	     -9.19968612	     23.95333410	     23.95333410	     13.04992257	    -10.85359984	      0.33813841	     -9.66123654	      5.92358679	      2.14006807	      4.19449983	    -12.49269246	     -2.77982522	     26.37967576	     46.27826679	      0.00000000	      0.00000000	     19.97283396	    -17.78694373	     -1.17866762	     47.12040999	     46.06592328	      0.00000000	      0.00000000
      2.81357143	     -2.95815327	     -4.68358191	      0.24360597	      1.00868574	      0.93273302	      0.42498331	     26.45815128	     -6.80898500	     -3.75383904	     64.16205091	     64.16205091	      0.00686824	     -8.56994510	     -3.18338047	     14.75395863	     -6.69562507	     -9.58944455	     23.28386981	     23.28386981	     13.17875167	    -10.77846636	      0.42296318	     -9.75621923	      5.98927849	      2.13246993	      2.57371715	    -12.28516590	     -2.76128605	     25.76641572	     46.28990754	      0.00000000	      0.00000000	     21.26362400	    -18.31738351	     -1.52351261	     48.34646947	     46.13079022	      0.00000000	      0.00000000
      2.82714286	     -2.94824869	     -4.76149917	     -0.20528531	      1.00809310	      0.93371828	      0.42464999	     27.45912814	     -6.60293643	     -3.53530149	     63.63541697	     63.63541697	     -0.01377489	     -8.41703615	     -2.99316776	     13.93410323	     -6.71956104	     -9.90767647	     22.60613090	     22.60613090	     13.26616615	    -10.83940789	      0.51850680	     -9.91629306	      6.09100614	      2.26026766	      0.81623298	    -12.11458529	     -2.84637412	     25.41107742	     46.29720655	      0.00000000	      0.00000000	     22.45303905	    -18.82910195	     -1.96844663	     50.13891345	     46.21171991	      0.00000000	      0.00000000
      2.84071429	     -2.95319191	     -4.84879753	     -0.64923451	      1.00753058	      0.93458078	      0.42441052	     28.35339633	     -6.37665514	     -3.39995885	     62.84401488	     62.84401488	      0.03003949	     -8.29837896	     -2.63105531	     13.13804969	     -6.74928744	    -10.21952161	     21.93459925	     21.93459925	     13.34083730	    -10.95213052	      0.57492111	    -10.05499085	      6.18663852	      2.27309673	     -0.89004132	    -11.94612495	     -3.03247134	     25.34010012	     46.30058857	      0.00000000	      0.00000000	     23.44707688	    -19.40101132	     -2.49273050	     52.15378950	     46.30155032	      0.00000000	      0.00000000
      2.85428571	     -3.02856906	     -4.96089418	     -1.06983445	      1.00687055	      0.93525339	      0.42431135	     29.21361041	     -6.12326460	     -3.35005758	     61.74800972	     61.74800972	      0.19357905	     -8.05233391	     -1.92814337	     12.48488199	     -6.80727670	    -10.44849688	     21.34453092	     21.34453092	     13.29704509	    -11.12673996	      0.42090076	    -10.17808983	      6.28506886	      2.02535780	     -2.57620440	    -11.78661305	     -3.53215223	     25.96885103	     46.30091192	      0.00000000	      0.00000000	     23.86974289	    -20.15570924	     -3.34619705	     54.98533661	     46.43828112	      0.00000000	      0.00000000
      2.86785714	     -3.06575761	     -5.06259070	     -1.53547804	      1.00626848	      0.93598229	      0.42443748	     29.84344703	     -5.82658378	     -3.34033712	     60.16190662	     60.16190662	      0.23347273	     -8.03587050	     -1.60162538	     11.71920856	     -6.86686284	    -10.78853990	     20.64837251	     20.64837251	     13.36213029	    -11.14299521	      0.49968681	    -10.30385530	      6.37879407	      2.02207277	     -3.91027628	    -11.65409078	     -3.60986576	     25.66045583	     46.30910030	      0.00000000	      0.00000000	     24.90028253	    -20.70779490	     -3.80572461	     56.22102099	     46.50923414	      0.00000000	      0.00000000
      2.88142857	     -3.14635058	     -5.14720919	     -2.01100843	      1.00566292	      0.93652383	      0.42476277	     30.33421540	     -5.53435954	     -3.40972101	     58.10082073	     58.10082073	      0.37116656	     -7.89501449	     -1.35594557	     11.03867375	     -6.92076499	    -11.12546116	     20.02245654	     20.02245654	     13.41476254	    -11.21598143	      0.48369672	    -10.38832130	      6.42113813	      2.12490260	     -5.23524698	    -11.55144521	     -3.77008562	     25.57307443	     46.31446649	      0.00000000	      0.00000000	     25.76500093	    -21.17733045	     -4.37149724	     57.90949548	     46.59409126	      0.00000000	      0.00000000
      2.89500000	     -3.25120929	     -5.21608589	     -2.49468153	      1.00501526	      0.93691791	      0.42524711	     30.66748565	     -5.25323364	     -3.59013844	     55.54598793	     55.54598793	      0.50361910	     -7.66447554	     -1.28856355	     10.40672221	     -6.97336307	    -11.50304433	     19.42147948	     19.42147948	     13.39741217	    -11.28839774	      0.38616026	    -10.48067600	      6.45446312	      2.15152622	     -6.42869125	    -11.46283771	     -4.00140871	     25.71672654	     46.31669908	      0.00000000	      0.00000000	     26.37092049	    -21.63894130	     -5.03813319	     59.79853954	     46.68856775	      0.00000000	      0.00000000
      2.90857143	     -3.49279045	     -5.30868749	     -2.94387484	      1.00431910	      0.93700456	      0.42588859	     30.93913200	     -4.94613897	     -3.92793043	     52.48180625	     52.48180625	      0.67976295	     -7.20766741	     -1.17112139	     10.00717643	     -7.07299429	    -11.81529125	     18.96564031	     18.96564031	     13.46332042	    -11.35232247	      0.33516003	    -10.36081595	      6.53595347	      2.04967618	     -7.34678765	    -11.39298569	     -4.10085823	     25.64880911	     46.31923040	      0.00000000	      0.00000000	     27.01844082	    -22.15098146	     -5.46420506	     60.83855576	     46.74648396	      0.00000000	      0.00000000
      2.92214286	     -3.65266433	     -5.30736594	     -3.44709827	      1.00377404	      0.93708161	      0.42673133	     30.88390942	     -4.67810608	     -4.27512704	     48.85418868	     48.85418868	      0.62594943	     -6.62605130	     -2.17866784	      9.39561681	     -7.06450164	    -12.26620617	     18.29878972	     18.29878972	     13.34640487	    -11.37781458	     -0.10877683	    -10.42675376	      6.46702131	      2.07272373	     -8.40369535	    -11.31652994	     -4.51299248	     26.32967942	     46.31358694	      0.00000000	      0.00000000	     27.03125502	    -22.49396182	     -6.61859609	     63.76512286	     46.89500611	      0.00000000	      0.00000000
      2.93571429	     -3.95578654	     -5.40068446	     -3.88538118	      1.00314952	      0.93684921	      0.42774570	     30.76432324	     -4.26352956	     -4.77526075	     44.79555222	     44.79555222	      0.92329998	     -5.68876922	     -2.01771902	      9.11564596	     -7.20057049	    -12.56043039	     17.95873253	     17.95873253	     13.45108802	    -11.47782135	     -0.17955024	    -10.24266878	      6.55979571	      2.01946095	     -8.99675753	    -11.26600911	     -4.55055499	     26.22995836	     46.31540175	      0.00000000	      0.00000000	     27.60711429	    -22.95884060	     -6.93908570	     64.41081846	     46.93672695	      0.00000000	      0.00000000
      2.94928571	     -4.19267476	     -5.45593426	     -4.31396910	      1.00266967	      0.93661727	      0.42886955	     30.31685093	     -3.85453036	     -5.38075159	     40.26950763	     40.26950763	      1.18872613	     -4.29869000	     -1.91855988	      8.71530389	     -7.29321670	    -12.89809086	     17.54492248	     17.54492248	     13.54094977	    -11.48283247	     -0.29324071	    -10.13982183	      6.59711857	      2.12841182	     -9.56325538	    -11.22449076	     -4.60049224	     26.19285136	     46.31562039	      0.00000000	      0.00000000	     28.10240573	    -23.19745983	     -7.28005364	     65.35996521	     46.98405069	      0.00000000	      0.00000000
      2.96285714	     -4.32592719	     -5.35809546	     -4.73244362	      1.00244614	      0.93627677	      0.43001557	     29.48643161	     -3.62663111	     -6.23058449	     35.27415835	     35.27415835	      0.78743757	     -2.36169730	     -3.81788327	      8.14022737	     -7.21839320	    -13.41006326	     17.02202421	     17.02202421	     13.41900622	    -11.35822064	     -1.06154574	    -10.20826355	      6.42106839	      2.00317081	    -10.12912244	    -11.21511673	     -4.95069268	     26.95285522	     46.30478347	      0.00000000	      0.00000000	     27.68576269	    -23.38996739	     -8.70409394	     68.18113942	     47.15176218	      0.00000000	      0.00000000
      2.97642857	     -4.52707205	     -5.38239142	     -5.06656991	      1.00228981	      0.93573639	      0.43137715	     28.53211603	     -3.09910285	     -6.98540655	     30.12833769	     30.12833769	      0.86460789	     -0.39482685	     -3.29210904	      7.78362356	     -7.30126746	    -13.67389700	     16.78042165	     16.78042165	     13.57667663	    -11.41343557	     -1.25793496	    -10.08820129	      6.42103169	      2.04393322	    -10.40723627	    -11.19339580	     -4.94776263	     26.89099692	     46.30469022	      0.00000000	      0.00000000	     28.07812589	    -23.55475448	     -8.93868028	     68.76787024	     47.18702569	      0.00000000	      0.00000000
      2.99000000	     -4.70252637	     -5.30942461	     -5.34905717	      1.00234772	      0.93502499	      0.43277460	     27.43830046	     -2.65028683	     -7.88113260	     25.00961640	     25.00961640	      0.84652511	      2.01921233	     -2.45666900	      7.39540316	     -7.28193270	    -13.98347012	     16.53507750	     16.53507750	     13.73991002	    -11.33949629	     -1.52616411	     -9.96461036	      6.33944845	      2.13824638	    -10.63433645	    -11.14759542	     -4.95790139	     26.91113814	     46.30230269	      0.00000000	      0.00000000	     28.34726347	    -23.59723181	     -9.17283915	     69.46924010	     47.22298325	      0.00000000	      0.00000000
      3.00357143	     -4.80833966	     -5.13780827	     -5.57989714	      1.00272871	      0.93413798	      0.43419969	     26.27809783	     -2.35133083	     -9.12996631	     20.29466109	     20.29466109	      0.97800616	      5.14950524	     -0.88462556	      6.90227350	     -7.16130235	    -14.38832937	     16.24717961	     16.24717961	     13.87400138	    -11.07552030	     -2.08109944	     -9.87836364	      6.13168906	      2.11021498	    -10.75842207	    -11.09367885	     -4.99527065	     27.12685348	     46.29423069	      0.00000000	      0.00000000	     28.33632281	    -23.57561130	     -9.68501017	     70.51606112	     47.29150276	      0.00000000	      0.00000000
      3.01714286	     -4.85723611	     -5.01797773	     -5.74670612	      1.00333309	      0.93317792	      0.43580460	     25.07472902	     -1.89523010	    -10.15733985	     16.05511689	     16.05511689	      1.06834200	      7.67128311	      1.32960117	      6.39673200	     -7.09633001	    -14.63450172	     16.07859665	     16.07859665	     14.10172393	    -10.95662222	     -2.51106106	     -9.80114104	      5.97015937	      2.08067147	    -10.74197390	    -11.04501245	     -4.97110464	     27.25425973	     46.28659286	      0.00000000	      0.00000000	     28.39182308	    -23.52355862	     -9.93715117	     71.09380566	     47.33188477	      0.00000000	      0.00000000
